REM DIRINDEX 1\2,1\3,1\4,1\5\6,1\5\7,1\8
REM DIRNAME folder01,folder02,folder03,folder04,folder05,folder06,folder07,folder08
TITLE ""
FILE "150 【150】Unit9 (1693 go over ～_1704 drop off).mp3" MP3
  TRACK 01 AUDIO
    TITLE "0:"
    INDEX 01 00:00:00
  TRACK 02 AUDIO
    TITLE "2:cjc115_5884"
    INDEX 01 00:00:07
  TRACK 03 AUDIO
    TITLE "0:"
    INDEX 01 00:01:32
  TRACK 04 AUDIO
    TITLE "3:cjc115_5885"
    INDEX 01 00:01:42
  TRACK 05 AUDIO
    TITLE "0:"
    INDEX 01 00:04:13
  TRACK 06 AUDIO
    TITLE "4:cjc115_5886"
    INDEX 01 00:04:17
  TRACK 07 AUDIO
    TITLE "0:"
    INDEX 01 00:08:42
  TRACK 08 AUDIO
    TITLE "2:cjc115_5887"
    INDEX 01 00:09:51
  TRACK 09 AUDIO
    TITLE "0:"
    INDEX 01 00:11:05
  TRACK 10 AUDIO
    TITLE "3:cjc115_5888"
    INDEX 01 00:11:13
  TRACK 11 AUDIO
    TITLE "0:"
    INDEX 01 00:15:13
  TRACK 12 AUDIO
    TITLE "4:cjc115_5889"
    INDEX 01 00:15:21
  TRACK 13 AUDIO
    TITLE "0:"
    INDEX 01 00:19:38
  TRACK 14 AUDIO
    TITLE "2:cjc115_5890"
    INDEX 01 00:20:47
  TRACK 15 AUDIO
    TITLE "0:"
    INDEX 01 00:21:74
  TRACK 16 AUDIO
    TITLE "3:cjc115_5891"
    INDEX 01 00:22:07
  TRACK 17 AUDIO
    TITLE "0:"
    INDEX 01 00:25:09
  TRACK 18 AUDIO
    TITLE "4:cjc115_5892"
    INDEX 01 00:25:19
  TRACK 19 AUDIO
    TITLE "0:"
    INDEX 01 00:28:21
  TRACK 20 AUDIO
    TITLE "2:cjc115_5893"
    INDEX 01 00:29:23
  TRACK 21 AUDIO
    TITLE "0:"
    INDEX 01 00:30:42
  TRACK 22 AUDIO
    TITLE "3:cjc115_5894"
    INDEX 01 00:30:54
  TRACK 23 AUDIO
    TITLE "0:"
    INDEX 01 00:33:13
  TRACK 24 AUDIO
    TITLE "4:cjc115_5895"
    INDEX 01 00:33:21
  TRACK 25 AUDIO
    TITLE "0:"
    INDEX 01 00:36:44
  TRACK 26 AUDIO
    TITLE "2:cjc115_5896"
    INDEX 01 00:37:54
  TRACK 27 AUDIO
    TITLE "0:"
    INDEX 01 00:40:07
  TRACK 28 AUDIO
    TITLE "3:cjc115_5897"
    INDEX 01 00:40:17
  TRACK 29 AUDIO
    TITLE "0:"
    INDEX 01 00:42:70
  TRACK 30 AUDIO
    TITLE "4:cjc115_5898"
    INDEX 01 00:43:03
  TRACK 31 AUDIO
    TITLE "0:"
    INDEX 01 00:46:47
  TRACK 32 AUDIO
    TITLE "2:cjc115_5899"
    INDEX 01 00:47:58
  TRACK 33 AUDIO
    TITLE "0:"
    INDEX 01 00:49:06
  TRACK 34 AUDIO
    TITLE "3:cjc115_5900"
    INDEX 01 00:49:16
  TRACK 35 AUDIO
    TITLE "0:"
    INDEX 01 00:51:46
  TRACK 36 AUDIO
    TITLE "4:cjc115_5901"
    INDEX 01 00:51:54
  TRACK 37 AUDIO
    TITLE "0:"
    INDEX 01 00:55:14
  TRACK 38 AUDIO
    TITLE "2:cjc115_5902"
    INDEX 01 00:56:24
  TRACK 39 AUDIO
    TITLE "0:"
    INDEX 01 00:57:46
  TRACK 40 AUDIO
    TITLE "3:cjc115_5903"
    INDEX 01 00:57:56
  TRACK 41 AUDIO
    TITLE "0:"
    INDEX 01 00:59:71
  TRACK 42 AUDIO
    TITLE "4:cjc115_5904"
    INDEX 01 01:00:04
  TRACK 43 AUDIO
    TITLE "0:"
    INDEX 01 01:03:49
  TRACK 44 AUDIO
    TITLE "2:cjc115_5905"
    INDEX 01 01:04:58
  TRACK 45 AUDIO
    TITLE "0:"
    INDEX 01 01:06:18
  TRACK 46 AUDIO
    TITLE "3:cjc115_5906"
    INDEX 01 01:06:28
  TRACK 47 AUDIO
    TITLE "0:"
    INDEX 01 01:08:19
  TRACK 48 AUDIO
    TITLE "4:cjc115_5907"
    INDEX 01 01:08:27
  TRACK 49 AUDIO
    TITLE "0:"
    INDEX 01 01:12:36
  TRACK 50 AUDIO
    TITLE "2:cjc115_5908"
    INDEX 01 01:13:45
  TRACK 51 AUDIO
    TITLE "0:"
    INDEX 01 01:14:68
  TRACK 52 AUDIO
    TITLE "3:cjc115_5909"
    INDEX 01 01:15:01
  TRACK 53 AUDIO
    TITLE "0:"
    INDEX 01 01:16:28
  TRACK 54 AUDIO
    TITLE "4:cjc115_5910"
    INDEX 01 01:16:36
  TRACK 55 AUDIO
    TITLE "0:"
    INDEX 01 01:19:05
  TRACK 56 AUDIO
    TITLE "2:cjc115_5911"
    INDEX 01 01:20:14
  TRACK 57 AUDIO
    TITLE "0:"
    INDEX 01 01:21:37
  TRACK 58 AUDIO
    TITLE "3:cjc115_5912"
    INDEX 01 01:21:43
  TRACK 59 AUDIO
    TITLE "0:"
    INDEX 01 01:23:40
  TRACK 60 AUDIO
    TITLE "4:cjc115_5913"
    INDEX 01 01:23:50
  TRACK 61 AUDIO
    TITLE "0:"
    INDEX 01 01:27:38
  TRACK 62 AUDIO
    TITLE "2:cjc115_5914"
    INDEX 01 01:28:47
  TRACK 63 AUDIO
    TITLE "0:"
    INDEX 01 01:29:56
  TRACK 64 AUDIO
    TITLE "3:cjc115_5915"
    INDEX 01 01:29:66
  TRACK 65 AUDIO
    TITLE "0:"
    INDEX 01 01:32:27
  TRACK 66 AUDIO
    TITLE "4:cjc115_5916"
    INDEX 01 01:32:37
  TRACK 67 AUDIO
    TITLE "0:"
    INDEX 01 01:35:53
  TRACK 68 AUDIO
    TITLE "2:cjc115_5917"
    INDEX 01 01:36:62
  TRACK 69 AUDIO
    TITLE "0:"
    INDEX 01 01:38:12
  TRACK 70 AUDIO
    TITLE "3:cjc115_5918"
    INDEX 01 01:38:18
  TRACK 71 AUDIO
    TITLE "0:"
    INDEX 01 01:40:33
  TRACK 72 AUDIO
    TITLE "4:cjc115_5919"
    INDEX 01 01:40:44
  TRACK 73 AUDIO
    TITLE "0:"
    INDEX 01 01:43:41
